HIERARCHY
ROOT mixamorig:Hips
{
	OFFSET -0.000008 104.274872 1.554316
	CHANNELS 6 Xposition Yposition Zposition Xrotation Yrotation Zrotation
	JOINT mixamorig:Spine
	{
		OFFSET -0.000005 10.181595 0.131519
		CHANNELS 6 Xposition Yposition Zposition Xrotation Yrotation Zrotation
		JOINT mixamorig:Spine1
		{
			OFFSET -0.000000 9.893959 -1.470707
			CHANNELS 6 Xposition Yposition Zposition Xrotation Yrotation Zrotation
			JOINT mixamorig:Spine2
			{
				OFFSET -0.000000 9.220757 -1.370641
				CHANNELS 6 Xposition Yposition Zposition Xrotation Yrotation Zrotation
				JOINT mixamorig:Neck
				{
					OFFSET 0.000001 16.740417 -2.049036
					CHANNELS 6 Xposition Yposition Zposition Xrotation Yrotation Zrotation
					JOINT mixamorig:Head
					{
						OFFSET 0.000000 9.617874 1.685006
						CHANNELS 6 Xposition Yposition Zposition Xrotation Yrotation Zrotation
						JOINT mixamorig:HeadTop_End
						{
							OFFSET 0.000002 22.037354 7.501101
							CHANNELS 6 Xposition Yposition Zposition Xrotation Yrotation Zrotation
							End Site
							{
								OFFSET 0.000168 2310.654297 -282.823242
							}
						}
					}
				}
				JOINT mixamorig:RightShoulder
				{
					OFFSET -4.569970 11.014908 -2.160885
					CHANNELS 6 Xposition Yposition Zposition Xrotation Yrotation Zrotation
					JOINT mixamorig:RightArm
					{
						OFFSET -10.592851 -0.524811 -2.232101
						CHANNELS 6 Xposition Yposition Zposition Xrotation Yrotation Zrotation
						JOINT mixamorig:RightForeArm
						{
							OFFSET -27.841511 0.000031 -0.000004
							CHANNELS 6 Xposition Yposition Zposition Xrotation Yrotation Zrotation
							JOINT mixamorig:RightHand
							{
								OFFSET -28.328831 -0.000015 0.000015
								CHANNELS 6 Xposition Yposition Zposition Xrotation Yrotation Zrotation
								JOINT mixamorig:RightHandThumb1
								{
									OFFSET -2.464806 -1.573990 2.681852
									CHANNELS 6 Xposition Yposition Zposition Xrotation Yrotation Zrotation
									JOINT mixamorig:RightHandThumb2
									{
										OFFSET -3.215179 -1.872803 1.924282
										CHANNELS 6 Xposition Yposition Zposition Xrotation Yrotation Zrotation
										JOINT mixamorig:RightHandThumb3
										{
											OFFSET -2.654831 -1.527969 1.512609
											CHANNELS 6 Xposition Yposition Zposition Xrotation Yrotation Zrotation
											JOINT mixamorig:RightHandThumb4
											{
												OFFSET -2.018814 -1.152008 1.108052
												CHANNELS 6 Xposition Yposition Zposition Xrotation Yrotation Zrotation
												End Site
												{
													OFFSET -188.809540 -114.533607 132.431396
												}
											}
										}
									}
								}
								JOINT mixamorig:RightHandIndex1
								{
									OFFSET -9.108284 -0.517868 2.259835
									CHANNELS 6 Xposition Yposition Zposition Xrotation Yrotation Zrotation
									JOINT mixamorig:RightHandIndex2
									{
										OFFSET -3.699989 0.000000 0.001215
										CHANNELS 6 Xposition Yposition Zposition Xrotation Yrotation Zrotation
										JOINT mixamorig:RightHandIndex3
										{
											OFFSET -2.850006 0.000031 -0.000522
											CHANNELS 6 Xposition Yposition Zposition Xrotation Yrotation Zrotation
											JOINT mixamorig:RightHandIndex4
											{
												OFFSET -2.772186 -0.000015 -0.000020
												CHANNELS 6 Xposition Yposition Zposition Xrotation Yrotation Zrotation
												End Site
												{
													OFFSET -277.218445 0.000000 -0.050231
												}
											}
										}
									}
								}
								JOINT mixamorig:RightHandMiddle1
								{
									OFFSET -9.532516 -0.000031 -0.000023
									CHANNELS 6 Xposition Yposition Zposition Xrotation Yrotation Zrotation
									JOINT mixamorig:RightHandMiddle2
									{
										OFFSET -3.700005 -0.000015 0.003713
										CHANNELS 6 Xposition Yposition Zposition Xrotation Yrotation Zrotation
										JOINT mixamorig:RightHandMiddle3
										{
											OFFSET -2.949974 0.000015 -0.002054
											CHANNELS 6 Xposition Yposition Zposition Xrotation Yrotation Zrotation
											JOINT mixamorig:RightHandMiddle4
											{
												OFFSET -2.946640 0.000000 -0.000156
												CHANNELS 6 Xposition Yposition Zposition Xrotation Yrotation Zrotation
												End Site
												{
													OFFSET -294.664337 0.000000 -0.113670
												}
											}
										}
									}
								}
								JOINT mixamorig:RightHandRing1
								{
									OFFSET -9.103600 -0.043076 -1.865134
									CHANNELS 6 Xposition Yposition Zposition Xrotation Yrotation Zrotation
									JOINT mixamorig:RightHandRing2
									{
										OFFSET -3.379288 0.000000 -0.001055
										CHANNELS 6 Xposition Yposition Zposition Xrotation Yrotation Zrotation
										JOINT mixamorig:RightHandRing3
										{
											OFFSET -2.889687 -0.000015 0.000379
											CHANNELS 6 Xposition Yposition Zposition Xrotation Yrotation Zrotation
											JOINT mixamorig:RightHandRing4
											{
												OFFSET -2.638809 -0.000015 0.000941
												CHANNELS 6 Xposition Yposition Zposition Xrotation Yrotation Zrotation
												End Site
												{
													OFFSET -263.880371 0.000000 0.516020
												}
											}
										}
									}
								}
								JOINT mixamorig:RightHandPinky1
								{
									OFFSET -8.076683 -0.486710 -3.806280
									CHANNELS 6 Xposition Yposition Zposition Xrotation Yrotation Zrotation
									JOINT mixamorig:RightHandPinky2
									{
										OFFSET -3.600014 -0.000015 -0.003747
										CHANNELS 6 Xposition Yposition Zposition Xrotation Yrotation Zrotation
										JOINT mixamorig:RightHandPinky3
										{
											OFFSET -2.099983 0.000000 -0.005739
											CHANNELS 6 Xposition Yposition Zposition Xrotation Yrotation Zrotation
											JOINT mixamorig:RightHandPinky4
											{
												OFFSET -2.115768 -0.000031 -0.003680
												CHANNELS 6 Xposition Yposition Zposition Xrotation Yrotation Zrotation
												End Site
												{
													OFFSET -211.577087 0.000000 -0.350686
												}
											}
										}
									}
								}
							}
						}
					}
				}
				JOINT mixamorig:LeftShoulder
				{
					OFFSET 4.570447 11.014725 -2.160855
					CHANNELS 6 Xposition Yposition Zposition Xrotation Yrotation Zrotation
					JOINT mixamorig:LeftArm
					{
						OFFSET 10.592371 -0.524597 -2.232119
						CHANNELS 6 Xposition Yposition Zposition Xrotation Yrotation Zrotation
						JOINT mixamorig:LeftForeArm
						{
							OFFSET 27.841532 -0.000031 0.000026
							CHANNELS 6 Xposition Yposition Zposition Xrotation Yrotation Zrotation
							JOINT mixamorig:LeftHand
							{
								OFFSET 28.328846 -0.000061 0.000022
								CHANNELS 6 Xposition Yposition Zposition Xrotation Yrotation Zrotation
								JOINT mixamorig:LeftHandThumb1
								{
									OFFSET 2.466141 -1.576172 2.681732
									CHANNELS 6 Xposition Yposition Zposition Xrotation Yrotation Zrotation
									JOINT mixamorig:LeftHandThumb2
									{
										OFFSET 3.217812 -1.872070 1.916482
										CHANNELS 6 Xposition Yposition Zposition Xrotation Yrotation Zrotation
										JOINT mixamorig:LeftHandThumb3
										{
											OFFSET 2.656029 -1.528778 1.514513
											CHANNELS 6 Xposition Yposition Zposition Xrotation Yrotation Zrotation
											JOINT mixamorig:LeftHandThumb4
											{
												OFFSET 2.020889 -1.154053 1.115139
												CHANNELS 6 Xposition Yposition Zposition Xrotation Yrotation Zrotation
												End Site
												{
													OFFSET 190.885437 -115.081749 130.048782
												}
											}
										}
									}
								}
								JOINT mixamorig:LeftHandIndex1
								{
									OFFSET 9.109314 -0.518021 2.259871
									CHANNELS 6 Xposition Yposition Zposition Xrotation Yrotation Zrotation
									JOINT mixamorig:LeftHandIndex2
									{
										OFFSET 3.699989 0.000000 -0.000322
										CHANNELS 6 Xposition Yposition Zposition Xrotation Yrotation Zrotation
										JOINT mixamorig:LeftHandIndex3
										{
											OFFSET 2.850006 0.000000 0.000352
											CHANNELS 6 Xposition Yposition Zposition Xrotation Yrotation Zrotation
											JOINT mixamorig:LeftHandIndex4
											{
												OFFSET 2.774864 -0.000031 -0.000027
												CHANNELS 6 Xposition Yposition Zposition Xrotation Yrotation Zrotation
												End Site
												{
													OFFSET 277.486267 0.000000 -0.009857
												}
											}
										}
									}
								}
								JOINT mixamorig:LeftHandMiddle1
								{
									OFFSET 9.533394 0.000061 0.000044
									CHANNELS 6 Xposition Yposition Zposition Xrotation Yrotation Zrotation
									JOINT mixamorig:LeftHandMiddle2
									{
										OFFSET 3.699989 -0.000015 -0.000231
										CHANNELS 6 Xposition Yposition Zposition Xrotation Yrotation Zrotation
										JOINT mixamorig:LeftHandMiddle3
										{
											OFFSET 2.949997 -0.000015 -0.000059
											CHANNELS 6 Xposition Yposition Zposition Xrotation Yrotation Zrotation
											JOINT mixamorig:LeftHandMiddle4
											{
												OFFSET 2.952896 0.000031 0.000063
												CHANNELS 6 Xposition Yposition Zposition Xrotation Yrotation Zrotation
												End Site
												{
													OFFSET 295.289337 0.000000 0.022810
												}
											}
										}
									}
								}
								JOINT mixamorig:LeftHandRing1
								{
									OFFSET 9.104523 -0.042999 -1.865074
									CHANNELS 6 Xposition Yposition Zposition Xrotation Yrotation Zrotation
									JOINT mixamorig:LeftHandRing2
									{
										OFFSET 3.150009 -0.000031 0.000043
										CHANNELS 6 Xposition Yposition Zposition Xrotation Yrotation Zrotation
										JOINT mixamorig:LeftHandRing3
										{
											OFFSET 2.949982 -0.000015 0.000040
											CHANNELS 6 Xposition Yposition Zposition Xrotation Yrotation Zrotation
											JOINT mixamorig:LeftHandRing4
											{
												OFFSET 2.644348 0.000000 0.000057
												CHANNELS 6 Xposition Yposition Zposition Xrotation Yrotation Zrotation
												End Site
												{
													OFFSET 264.434631 0.000000 0.012105
												}
											}
										}
									}
								}
								JOINT mixamorig:LeftHandPinky1
								{
									OFFSET 8.077789 -0.486847 -3.806259
									CHANNELS 6 Xposition Yposition Zposition Xrotation Yrotation Zrotation
									JOINT mixamorig:LeftHandPinky2
									{
										OFFSET 3.599953 0.000031 0.014727
										CHANNELS 6 Xposition Yposition Zposition Xrotation Yrotation Zrotation
										JOINT mixamorig:LeftHandPinky3
										{
											OFFSET 2.100021 0.000015 0.007705
											CHANNELS 6 Xposition Yposition Zposition Xrotation Yrotation Zrotation
											JOINT mixamorig:LeftHandPinky4
											{
												OFFSET 2.125504 0.000031 0.007517
												CHANNELS 6 Xposition Yposition Zposition Xrotation Yrotation Zrotation
												End Site
												{
													OFFSET 212.550781 0.000000 0.625752
												}
											}
										}
									}
								}
							}
						}
					}
				}
			}
		}
	}
	JOINT mixamorig:RightUpLeg
	{
		OFFSET -8.207787 -6.751648 -1.599560
		CHANNELS 6 Xposition Yposition Zposition Xrotation Yrotation Zrotation
		JOINT mixamorig:RightLeg
		{
			OFFSET -0.000002 -44.370117 0.345942
			CHANNELS 6 Xposition Yposition Zposition Xrotation Yrotation Zrotation
			JOINT mixamorig:RightFoot
			{
				OFFSET 0.000003 -44.423679 -3.043532
				CHANNELS 6 Xposition Yposition Zposition Xrotation Yrotation Zrotation
				JOINT mixamorig:RightToeBase
				{
					OFFSET -0.000002 -8.728671 10.710558
					CHANNELS 6 Xposition Yposition Zposition Xrotation Yrotation Zrotation
					JOINT mixamorig:RightToe_End
					{
						OFFSET -0.000001 -0.000679 9.278119
						CHANNELS 6 Xposition Yposition Zposition Xrotation Yrotation Zrotation
						End Site
						{
							OFFSET 0.000000 -0.067690 927.812134
						}
					}
				}
			}
		}
	}
	JOINT mixamorig:LeftUpLeg
	{
		OFFSET 8.207793 -6.751686 -1.599556
		CHANNELS 6 Xposition Yposition Zposition Xrotation Yrotation Zrotation
		JOINT mixamorig:LeftLeg
		{
			OFFSET -0.000004 -44.370014 0.346954
			CHANNELS 6 Xposition Yposition Zposition Xrotation Yrotation Zrotation
			JOINT mixamorig:LeftFoot
			{
				OFFSET -0.000001 -44.423672 -3.044401
				CHANNELS 6 Xposition Yposition Zposition Xrotation Yrotation Zrotation
				JOINT mixamorig:LeftToeBase
				{
					OFFSET -0.000002 -8.728669 10.710558
					CHANNELS 6 Xposition Yposition Zposition Xrotation Yrotation Zrotation
					JOINT mixamorig:LeftToe_End
					{
						OFFSET -0.000003 -0.000679 9.278133
						CHANNELS 6 Xposition Yposition Zposition Xrotation Yrotation Zrotation
						End Site
						{
							OFFSET 0.000000 -0.068021 927.813477
						}
					}
				}
			}
		}
	}
}
MOTION
Frames: 3
Frame Time: 0.033333
0.000006 104.270477 1.554256 0.000010 0.000003 -0.000113 -0.000005 10.181587 0.131522 0.000001 -0.000003 0.000084 -0.000000 9.893967 -1.470711 0.000001 0.000000 -0.000000 -0.000000 9.220802 -1.370642 0.000000 -0.000000 -0.000000 0.000001 16.740433 -2.049030 0.000000 -0.000000 -0.000000 0.000000 9.617859 1.685014 0.000000 0.000000 0.000000 0.000002 22.037384 7.501101 0.000000 -0.000000 0.000000 -4.569968 11.014880 -2.160881 0.000008 0.000001 -0.000038 -10.592774 -0.524848 -2.231750 79.825329 64.530009 -55.677274 -27.841511 -0.000008 0.000569 37.168441 100.745680 -44.198345 -28.328823 0.000021 0.000028 -0.000321 -0.000044 0.000008 -2.464975 -1.573888 2.682182 -15.143607 70.770261 -32.621113 -3.215278 -1.872612 1.924725 249.120030 102.995694 433.106530 -2.654898 -1.527798 1.513088 130.651082 -290.960185 176.768834 -2.018826 -1.152019 1.108058 -0.000005 0.000002 0.000002 -9.108405 -0.517730 2.260288 -54.257049 142.260901 112.499124 -3.700053 0.000045 0.001737 141.881320 35.538106 -85.636598 -2.850099 0.000150 -0.000015 143.334989 26.405257 -70.594656 -2.772171 -0.000013 -0.000019 -0.000001 -0.000001 -0.000003 -9.532635 0.000149 0.000412 -236.648515 27.692213 -49.418577 -3.700109 0.000201 0.004187 -48.753395 158.999209 -224.272772 -2.950084 0.000216 -0.001603 -46.109016 160.528338 -223.895350 -2.946633 -0.000013 -0.000154 -0.000000 0.000000 0.000000 -9.103716 -0.042849 -1.864711 -56.444007 154.985735 -224.828408 -3.379332 0.000265 -0.000645 -51.735743 167.516878 -205.458989 -2.889768 0.000277 0.000824 -47.986519 170.722054 -200.771758 -2.638831 -0.000016 0.000942 0.000001 0.000000 0.000003 -8.076758 -0.486442 -3.805866 -239.334036 21.609926 -36.778950 -3.600056 0.000261 -0.003334 -233.845733 8.594005 -16.123230 -2.100014 0.000277 -0.005275 -47.612532 173.586922 -193.960953 -2.115767 -0.000042 -0.003674 0.000001 -0.000001 -0.000001 4.570446 11.014691 -2.160851 -0.000018 0.000010 -0.000021 10.592530 -0.524544 -2.232388 72.583526 -67.040363 51.879378 27.841736 -0.000036 -0.000105 243.979903 -76.589957 256.692005 28.328833 -0.000012 0.000025 0.000022 -0.000090 -0.000000 2.466176 -1.576141 2.681887 144.780217 203.023671 -167.509269 3.217845 -1.871931 1.916609 311.956869 -8.660425 12.942824 2.656060 -1.528727 1.514654 -53.035715 -4.947690 14.048796 2.020909 -1.154084 1.115145 0.000001 0.000003 0.000011 9.109241 -0.517804 2.260122 -112.048973 -19.883386 -29.150937 3.699932 0.000210 -0.000073 -107.272929 -13.586674 -18.394526 2.849979 0.000251 0.000573 -107.906498 -8.728126 -11.970897 2.774870 -0.000030 -0.000026 0.000000 -0.000002 0.000001 9.533344 0.000271 0.000280 -290.632008 -166.218118 -199.804944 3.699977 0.000209 0.000007 75.886639 -174.222471 172.596585 2.949978 0.000222 0.000183 -461.820563 -6.238059 -7.677511 2.952864 -0.000015 0.000066 0.000001 -0.000000 0.000001 9.104482 -0.042781 -1.864819 -288.929788 -168.804246 -195.629718 3.149991 0.000232 0.000291 257.681700 -5.006891 -6.217821 2.949972 0.000215 0.000286 -458.864403 -4.408779 -5.150318 2.644316 0.000015 0.000057 0.000000 -0.000001 0.000001 8.077748 -0.486629 -3.806004 -109.739270 -8.575697 -12.714009 3.599943 0.000269 0.014976 254.013315 -3.040254 -4.558423 2.099992 0.000232 0.007945 -462.132676 -2.552501 -3.635096 2.125503 0.000015 0.007512 -0.000001 -0.000001 0.000000 -8.207786 -6.751667 -1.599560 -0.077001 -0.000003 0.000080 -0.000002 -44.370110 0.345938 0.153719 -0.000000 -0.000000 0.000000 -44.423679 -3.043532 -0.076700 0.000000 -0.000002 -0.000006 -8.728667 10.710559 -0.000009 -0.000000 -0.000000 -0.000001 -0.000679 9.278123 0.000000 -0.000000 -0.000000 8.207792 -6.751710 -1.599556 -0.074518 -0.000003 0.000081 -0.000002 -44.370014 0.346960 0.148822 0.000002 0.000000 -0.000001 -44.423664 -3.044403 -0.074314 0.000000 -0.000002 -0.000004 -8.728671 10.710558 0.000007 -0.000000 -0.000000 0.000000 -0.000680 9.278137 -0.000000 0.000000 -0.000001 
0.000006 104.270477 1.554256 0.000010 0.000003 -0.000113 -0.000005 10.181587 0.131522 0.000001 -0.000003 0.000084 -0.000000 9.893967 -1.470711 0.000001 0.000000 -0.000000 -0.000000 9.220802 -1.370642 0.000000 -0.000000 -0.000000 0.000001 16.740433 -2.049030 0.000000 -0.000000 -0.000000 0.000000 9.617859 1.685014 0.000000 0.000000 0.000000 0.000002 22.037384 7.501101 0.000000 -0.000000 0.000000 -4.569968 11.014880 -2.160881 0.000008 0.000001 -0.000038 -10.592781 -0.524848 -2.231745 79.166824 64.602197 -55.191579 -27.841497 -0.000002 0.000579 32.274198 101.734172 -39.151925 -28.328833 0.000007 0.000018 -0.000321 -0.000045 0.000006 -2.464954 -1.573880 2.682213 -28.987876 73.588909 -25.683381 -3.215275 -1.872592 1.924738 264.603168 108.045690 423.783076 -2.654856 -1.527821 1.513133 123.663935 -305.863958 206.740974 -2.018830 -1.152011 1.108062 -0.000004 0.000004 0.000003 -9.108398 -0.517754 2.260322 -47.463254 144.167371 107.239400 -3.700054 0.000063 0.001745 141.980508 35.165475 -85.154537 -2.850108 0.000145 -0.000013 141.884312 28.216538 -72.072593 -2.772153 0.000001 -0.000018 -0.000001 -0.000000 -0.000004 -9.532613 0.000121 0.000433 -228.840939 29.368639 -60.291500 -3.700093 0.000161 0.004208 -43.415305 153.460800 -241.041856 -2.950088 0.000176 -0.001560 -40.362938 156.951723 -238.015536 -2.946624 -0.000001 -0.000152 0.000000 -0.000002 -0.000000 -9.103708 -0.042925 -1.864674 -46.132993 153.945866 -236.928498 -3.379363 0.000188 -0.000572 -44.054751 162.698357 -221.263650 -2.889776 0.000224 0.000861 -42.453529 166.101854 -214.972445 -2.638821 -0.000029 0.000944 -0.000000 -0.000001 0.000002 -8.076757 -0.486530 -3.805802 -228.042927 25.888369 -54.228150 -3.600070 0.000175 -0.003296 -225.029530 15.534676 -35.500410 -2.100032 0.000180 -0.005244 -43.485239 167.844550 -209.288799 -2.115758 -0.000054 -0.003675 -0.000001 -0.000003 -0.000004 4.570446 11.014691 -2.160851 -0.000018 0.000010 -0.000021 10.592535 -0.524530 -2.232402 72.818552 -66.624281 51.717161 27.841734 -0.000053 -0.000094 245.612646 -75.923461 259.127296 28.328833 0.000002 0.000024 0.000019 -0.000090 -0.000000 2.466174 -1.576137 2.681872 145.434644 197.233542 -168.317007 3.217836 -1.871944 1.916604 313.841482 -6.904964 12.585667 2.656067 -1.528726 1.514659 -55.349852 -0.254057 14.962060 2.020890 -1.154082 1.115144 -0.000001 -0.000001 0.000003 9.109229 -0.517782 2.260117 -114.041804 -18.808657 -28.628781 3.699935 0.000223 -0.000082 -112.842115 -15.052951 -22.526000 2.849970 0.000268 0.000577 -111.959785 -11.271194 -16.632585 2.774879 -0.000030 -0.000029 -0.000000 -0.000000 0.000000 9.533363 0.000265 0.000272 -290.669956 -167.423482 -198.100075 3.699985 0.000212 0.000016 73.840301 -172.514746 170.051302 2.949979 0.000208 0.000189 -463.591495 -9.292941 -11.794121 2.952881 -0.000016 0.000058 -0.000000 0.000000 -0.000000 9.104483 -0.042787 -1.864830 -287.258851 -169.844224 -193.761211 3.149983 0.000236 0.000260 255.743675 -2.880945 -3.705849 2.949971 0.000210 0.000288 -459.878331 -4.330181 -5.149994 2.644325 0.000016 0.000059 0.000002 -0.000001 0.000000 8.077753 -0.486646 -3.806010 -105.847455 -8.410808 -11.632023 3.599946 0.000235 0.014980 257.007915 -1.092066 -1.890469 2.099996 0.000210 0.007929 -460.210606 -1.912655 -2.753659 2.125496 0.000001 0.007511 0.000002 0.000000 -0.000000 -8.207786 -6.751667 -1.599560 -0.077001 -0.000003 0.000080 -0.000002 -44.370110 0.345938 0.153719 -0.000000 -0.000000 0.000000 -44.423679 -3.043532 -0.076700 0.000000 -0.000002 -0.000006 -8.728667 10.710559 -0.000009 -0.000000 -0.000000 -0.000001 -0.000679 9.278123 0.000000 -0.000000 -0.000000 8.207792 -6.751710 -1.599556 -0.074518 -0.000003 0.000081 -0.000002 -44.370014 0.346960 0.148822 0.000002 0.000000 -0.000001 -44.423664 -3.044403 -0.074314 0.000000 -0.000002 -0.000004 -8.728671 10.710558 0.000007 -0.000000 -0.000000 0.000000 -0.000680 9.278137 -0.000000 0.000000 -0.000001 
0.000006 104.270477 1.554256 0.000010 0.000003 -0.000113 -0.000005 10.181587 0.131522 0.000001 -0.000003 0.000084 -0.000000 9.893967 -1.470711 0.000001 0.000000 -0.000000 -0.000000 9.220802 -1.370642 0.000000 -0.000000 -0.000000 0.000001 16.740433 -2.049030 0.000000 -0.000000 -0.000000 0.000000 9.617859 1.685014 0.000000 0.000000 0.000000 0.000002 22.037384 7.501101 0.000000 -0.000000 0.000000 -4.569968 11.014880 -2.160881 0.000008 0.000001 -0.000038 -10.592778 -0.524842 -2.231751 79.685638 64.570880 -55.597456 -27.841496 0.000000 0.000575 39.885156 102.458172 -48.621774 -28.328838 0.000034 0.000019 -0.000323 -0.000045 0.000008 -2.464962 -1.573975 2.682144 -48.891949 50.717877 -8.359714 -3.215300 -1.872790 1.924635 301.656452 54.678349 376.962894 -2.654942 -1.528077 1.513062 92.544624 -233.512939 233.066654 -2.018822 -1.151989 1.108038 -0.000002 -0.000000 0.000003 -9.108186 -0.518095 2.260098 -69.117321 36.676268 117.133646 -3.699873 -0.000250 0.001548 106.396268 142.902365 -64.412167 -2.849715 -0.000156 -0.000167 90.570159 177.873931 -52.127304 -2.772163 -0.000032 -0.000004 0.000003 0.000000 0.000000 -9.532388 0.000115 -0.000059 -355.089486 -24.516571 -40.324587 -3.699904 0.000188 0.003685 -173.366949 198.767644 -227.735705 -2.949913 0.000153 -0.002079 -174.069652 197.296913 -220.041866 -2.946624 -0.000000 -0.000151 -0.000002 -0.000001 -0.000000 -9.103507 -0.042908 -1.865174 -175.147005 200.980079 -216.738650 -3.379231 0.000172 -0.001078 -173.407056 190.426726 -219.368341 -2.889676 0.000172 0.000360 -172.952411 188.510926 -210.863649 -2.638818 -0.000016 0.000935 0.000001 -0.000000 0.000001 -8.076546 -0.486547 -3.806311 -356.908639 -21.613937 -38.521850 -3.599972 0.000119 -0.003757 -351.171663 -6.086624 -41.220895 -2.099963 0.000207 -0.005724 -167.322860 181.235354 -217.073056 -2.115774 -0.000027 -0.003679 -0.000003 -0.000000 -0.000004 4.570446 11.014691 -2.160851 -0.000018 0.000010 -0.000021 10.592529 -0.524527 -2.232396 73.094267 -66.596202 51.919796 27.841726 -0.000065 -0.000104 244.667102 -76.746772 257.277899 28.328838 -0.000013 0.000019 0.000018 -0.000087 -0.000000 2.466177 -1.576147 2.681887 147.960858 202.597604 -167.753216 3.217845 -1.871941 1.916629 311.773274 -8.989433 12.972467 2.656067 -1.528722 1.514643 -52.640924 -4.471593 13.992411 2.020898 -1.154068 1.115144 0.000002 0.000005 0.000006 9.109241 -0.517787 2.260118 -112.516889 -15.828661 -23.503304 3.699950 0.000198 -0.000091 -105.459801 -10.554131 -13.855539 2.849980 0.000216 0.000595 -102.260049 -6.641735 -8.233877 2.774879 -0.000014 -0.000031 -0.000000 0.000000 -0.000000 9.533363 0.000262 0.000278 -289.188625 -170.200050 -193.746212 3.700000 0.000196 0.000009 79.368827 -178.993877 178.790105 2.949985 0.000175 0.000189 -455.819778 -5.377988 -5.955478 2.952873 -0.000030 0.000058 0.000001 0.000000 0.000000 9.104505 -0.042799 -1.864833 -288.920690 -172.586777 -190.365814 3.150019 0.000196 0.000288 260.191439 2.406371 2.856026 2.949983 0.000174 0.000257 -452.002385 -1.514965 -1.570333 2.644317 0.000016 0.000066 0.000002 -0.000000 0.000000 8.077768 -0.486640 -3.806015 -110.130592 -5.671576 -8.706835 3.599977 0.000228 0.014976 261.144688 3.969504 4.111210 2.099999 0.000195 0.007953 -454.058955 1.043341 0.678900 2.125489 -0.000016 0.007514 -0.000004 -0.000000 -0.000000 -8.207786 -6.751667 -1.599560 -0.077001 -0.000003 0.000080 -0.000002 -44.370110 0.345938 0.153719 -0.000000 -0.000000 0.000000 -44.423679 -3.043532 -0.076700 0.000000 -0.000002 -0.000006 -8.728667 10.710559 -0.000009 -0.000000 -0.000000 -0.000001 -0.000679 9.278123 0.000000 -0.000000 -0.000000 8.207792 -6.751710 -1.599556 -0.074518 -0.000003 0.000081 -0.000002 -44.370014 0.346960 0.148822 0.000002 0.000000 -0.000001 -44.423664 -3.044403 -0.074314 0.000000 -0.000002 -0.000004 -8.728671 10.710558 0.000007 -0.000000 -0.000000 0.000000 -0.000680 9.278137 -0.000000 0.000000 -0.000001 
